<?xml version="1.0" encoding="UTF-8"?>
<svg xmlns="http://www.w3.org/2000/svg" xmlns:xlink="http://www.w3.org/1999/xlink" viewBox="0 0 480 480" width="480px" height="480px">
<g id="surface612058">
<path style="fill-rule:nonzero;fill:rgb(100%,100%,100%);fill-opacity:1;stroke-width:5;stroke-linecap:butt;stroke-linejoin:round;stroke:rgb(0%,0%,0%);stroke-opacity:1;stroke-miterlimit:10;" d="M 144.708909 121.239234 C 140.24204 123.316615 133.633364 124.708216 128.264531 124.708216 C 127.804959 124.708216 127.34825 124.701058 126.90729 124.681014 L 126.756963 124.673856 L 126.608067 124.659539 L 125.054685 124.523528 L 124.688173 124.487736 L 124.688173 139.332918 L 124.659539 139.643594 C 124.217147 144.697456 123.070364 151.29611 118.108131 157.548295 C 113.522431 163.322296 106.856488 167.017485 100.280741 167.422653 C 99.938567 167.444128 99.600689 167.455582 99.268537 167.455582 C 91.271123 167.455582 84.805616 161.844793 81.06175 151.659759 C 79.746028 148.086263 78.874129 143.529198 78.527661 138.473904 L 78.510481 138.20761 L 78.513344 137.939885 C 78.549136 132.867411 78.567748 128.898769 78.570611 125.763371 C 75.015728 127.455627 70.889601 128.391952 66.315355 128.391952 C 62.568625 128.391952 59.440385 127.812118 57.702315 127.402655 C 55.069439 127.01753 52.244717 126.048277 50.05996 124.408993 C 47.199445 126.878656 44.139926 128.168608 40.93008 128.245919 L 40.70101 128.250214 L 40.612245 128.250214 C 15.892705 128.250214 7.170857 54.538282 7.135065 53.793804 C 6.412062 39.379561 9.604728 28.196639 16.615708 20.551421 C 22.233655 14.428088 29.950458 11.019237 38.934306 10.694243 C 39.44685 10.677063 39.956532 10.665609 40.470508 10.665609 C 49.590366 10.665609 58.810442 13.540441 64.936639 15.9557 L 69.393486 17.712382 C 74.007819 15.450314 79.183374 14.246263 84.858589 14.246263 L 85.399767 14.250558 L 85.564411 14.250558 C 87.409858 14.282056 89.179426 14.435246 90.918928 14.652863 L 103.682434 11.89543 C 107.138531 11.146657 110.573152 10.741489 113.881785 10.687085 L 114.719323 10.684221 C 123.615838 10.684221 140.405253 13.063688 152.878126 28.998385 C 162.343021 41.093293 152.785066 75.930577 138.061578 101.010902 C 139.952839 100.925001 142.100372 100.673024 144.623008 100.151889 C 145.998861 99.866983 147.205775 99.728109 148.311039 99.728109 C 153.714232 99.728109 156.394354 103.174184 157.045772 106.126327 C 158.740892 113.814496 148.979637 119.257777 144.708909 121.239234 Z M 144.708909 121.239234 " transform="matrix(2.728421,0,0,2.728421,6.759101,6.759101)"/>
<path style="fill-rule:nonzero;fill:rgb(0.784314%,46.666667%,74.117649%);fill-opacity:1;stroke-width:5;stroke-linecap:butt;stroke-linejoin:round;stroke:rgb(0%,0%,0%);stroke-opacity:1;stroke-miterlimit:10;" d="M 117.569816 121.124699 L 117.569816 139.016515 C 117.105948 144.256496 115.873264 148.909484 112.531703 153.115786 C 109.419211 157.034319 104.726135 160.006505 99.845508 160.308591 C 92.853139 160.743824 89.212355 153.165895 87.754895 149.197254 C 86.728374 146.411187 85.952399 142.567103 85.643154 137.989994 C 85.717602 127.438447 85.753394 115.343539 85.535778 113.568245 C 85.133473 110.276793 83.252234 107.452071 80.231371 105.613782 C 80.07818 105.520722 79.910672 105.439116 79.743165 105.367532 L 79.20485 105.132735 C 78.275684 104.723272 76.921306 104.17064 75.197553 103.779789 C 75.485322 102.927934 75.8819 101.983019 76.330018 100.922138 C 76.77241 99.8813 77.239141 98.773173 77.680101 97.583439 L 78.228438 96.130275 C 79.953623 91.634772 81.905015 86.540823 81.940807 76.854017 C 81.955124 72.425803 81.382448 67.588126 80.18842 62.058944 C 78.556295 54.523966 72.945506 50.1702 64.787743 50.110069 C 64.737634 50.110069 64.684661 50.110069 64.634552 50.110069 C 61.321624 50.110069 57.702315 50.926132 54.531124 52.269056 C 56.831848 40.583611 63.904391 21.02531 85.425538 21.374642 C 85.432696 21.374642 85.439855 21.374642 85.447013 21.374642 C 110.170848 21.784105 121.07459 41.744711 123.985213 50.021304 C 116.863993 50.644089 111.933257 53.173883 109.304676 57.563441 C 103.301605 67.580968 112.07213 83.441217 116.287022 91.06496 C 117.021479 92.389272 117.598449 93.398613 117.83611 93.982742 L 118.129606 94.545396 C 119.71019 97.020786 121.189125 98.952134 122.375995 100.50838 C 122.799775 101.06817 123.252189 101.656594 123.64304 102.200636 C 120.832634 104.292333 118.206917 107.961752 117.677192 117.483914 C 117.605608 117.529728 117.562657 117.562657 117.562657 117.562657 C 117.562657 117.562657 117.591291 118.218371 117.627083 119.111745 C 117.605608 119.78607 117.562657 120.394538 117.562657 121.124699 Z M 117.569816 121.124699 " transform="matrix(2.728421,0,0,2.728421,6.759101,6.759101)"/>
<path style="fill-rule:nonzero;fill:rgb(0.784314%,46.666667%,74.117649%);fill-opacity:1;stroke-width:5;stroke-linecap:butt;stroke-linejoin:round;stroke:rgb(0%,0%,0%);stroke-opacity:1;stroke-miterlimit:10;" d="M 57.07094 105.877213 C 54.566916 108.627487 51.046393 112.578948 47.424221 116.935577 C 45.133518 119.69301 42.902947 121.071727 40.755414 121.124699 C 25.728408 121.492643 14.738764 63.162776 14.250558 53.437314 C 12.953448 27.516587 25.85726 18.296511 39.187715 17.8126 C 47.69481 17.501924 56.7574 20.391072 62.322375 22.582987 C 50.897498 32.674962 46.747032 49.654792 46.316093 60.416797 C 46.316093 60.431114 46.323252 60.441136 46.323252 60.455452 C 46.318957 60.484086 46.311798 60.508425 46.311798 60.537059 C 46.308935 61.061057 46.376224 62.008835 46.479306 63.280175 C 46.789982 67.095625 47.36409 74.192507 46.347591 81.442579 C 45.296731 88.956082 48.097114 97.020786 53.843913 103.016698 C 54.866139 104.08617 55.948496 105.025358 57.07094 105.877213 Z M 105.185707 18.859165 C 107.734113 18.307965 110.714889 17.865573 113.99632 17.8126 C 124.477714 17.640798 137.707951 21.175637 147.267337 33.387943 C 153.582517 41.456941 146.963819 73.113014 130.540917 99.742426 C 129.978263 98.794648 129.27244 97.815373 128.470694 96.76165 C 132.831619 89.358387 131.998376 83.013142 131.19663 77.392332 C 130.854456 74.989958 130.529463 72.720731 130.605343 70.42287 C 130.67979 68.076332 130.95038 65.735521 131.21381 63.469158 C 131.573164 60.391026 131.926791 57.209814 131.816551 53.932678 C 131.901021 53.497445 131.948267 53.027851 131.893863 52.479514 C 131.32405 46.404858 123.269369 27.623964 105.185707 18.860596 Z M 141.705226 114.780886 C 138.093075 116.458825 131.93395 117.775979 127.230852 117.562657 L 125.681765 117.423783 C 125.361066 117.356494 125.100499 117.323565 124.805571 117.266298 C 125.318116 109.433528 127.416972 108.157893 128.741284 107.356147 C 129.073435 107.152848 129.428494 106.935231 129.784985 106.678959 C 132.001239 108.043358 136.568327 109.087059 146.061855 107.128509 C 153.732844 105.546493 149.489318 111.167303 141.705226 114.780886 Z M 78.546273 117.509685 C 72.325585 122.577863 62.959476 121.378108 59.019469 120.391674 C 54.947745 119.89631 48.681243 116.703644 59.297216 114.000615 C 65.240157 112.777953 67.641099 111.772907 69.330492 110.472934 C 69.51518 110.480092 69.697004 110.505863 69.881692 110.505863 C 70.334106 110.505863 70.783656 110.472934 71.236069 110.437142 L 71.250386 110.437142 C 73.576881 110.437142 75.032908 111.082833 76.319997 111.648351 L 76.703689 111.815858 C 77.751685 112.503069 78.325793 113.362082 78.457508 114.424395 C 78.499027 114.815246 78.527661 115.913352 78.546273 117.509685 Z M 78.546273 117.509685 " transform="matrix(2.728421,0,0,2.728421,6.759101,6.759101)"/>
<path style="fill-rule:nonzero;fill:rgb(0.784314%,46.666667%,74.117649%);fill-opacity:1;stroke-width:5;stroke-linecap:butt;stroke-linejoin:round;stroke:rgb(0%,0%,0%);stroke-opacity:1;stroke-miterlimit:10;" d="M 74.809565 76.825383 C 74.776636 85.207921 73.148806 89.465764 71.571085 93.580437 L 70.994114 95.100891 C 70.590378 96.187543 70.163735 97.192588 69.76143 98.136071 C 69.034132 99.849803 68.328309 101.510562 67.933163 103.21284 C 64.826399 102.685978 61.678115 100.904957 58.980813 98.090257 C 54.79885 93.722175 52.657043 87.723398 53.398658 82.433308 C 54.521102 74.405829 53.908339 66.793539 53.576188 62.707499 C 53.530374 62.116212 53.483128 61.613689 53.458789 61.221406 C 54.648523 59.607893 60.565693 56.692974 66.140689 57.312895 C 69.287541 57.659364 71.349173 59.073873 72.490229 61.524924 C 71.705663 61.168434 70.776497 60.879232 69.754272 60.711725 C 66.807856 60.234972 64.289515 60.929341 64.132029 62.262244 C 63.968817 63.598009 66.230885 67.157188 69.180164 67.63394 C 70.994114 67.926005 72.636261 66.985385 73.675667 65.910187 C 74.427304 69.921779 74.823882 73.601219 74.809565 76.825383 Z M 123.836318 90.067073 C 123.486986 89.389884 123.066069 88.602455 122.522027 87.616022 C 119.970758 83.00312 114.786613 73.601219 114.388603 66.573059 C 115.310611 67.21016 116.511798 67.641099 117.76882 67.641099 C 117.993596 67.641099 118.225529 67.626782 118.453168 67.598148 C 119.717349 67.434936 120.961486 66.817878 121.94792 65.860078 C 122.428968 65.393347 123.525641 64.17498 123.3295 62.882165 C 123.063206 61.114029 120.74387 60.19918 117.565521 60.612938 C 116.818179 60.708861 116.14099 60.869211 115.542544 61.07251 C 116.98855 58.830486 120.038047 57.506173 124.630905 57.125344 C 124.530687 58.923545 124.360316 60.747517 124.138404 62.645936 C 123.857793 65.058332 123.565729 67.552334 123.482691 70.195232 C 123.391062 73.113014 123.771892 75.803157 124.142699 78.40024 C 124.71967 82.447625 125.236509 86.081251 123.836318 90.067073 Z M 123.836318 90.067073 " transform="matrix(2.728421,0,0,2.728421,6.759101,6.759101)"/>
<path style=" stroke:none;fill-rule:nonzero;fill:rgb(100%,100%,100%);fill-opacity:1;" d="M 435.246094 296.316406 C 433.46875 288.261719 426.15625 278.859375 411.414062 278.859375 C 408.398438 278.859375 405.105469 279.238281 401.351562 280.015625 C 394.46875 281.4375 388.609375 282.125 383.449219 282.359375 C 423.621094 213.929688 449.699219 118.878906 423.875 85.878906 C 389.84375 42.402344 344.035156 35.910156 319.761719 35.910156 L 317.476562 35.917969 C 308.449219 36.066406 299.078125 37.171875 289.648438 39.214844 L 254.824219 46.738281 C 250.078125 46.144531 245.25 45.726562 240.214844 45.640625 L 239.765625 45.640625 L 238.289062 45.628906 C 222.804688 45.628906 208.683594 48.914062 196.09375 55.085938 L 183.933594 50.296875 C 167.21875 43.703125 142.0625 35.859375 117.179688 35.859375 C 115.777344 35.859375 114.386719 35.890625 112.988281 35.9375 C 88.476562 36.824219 67.421875 46.125 52.09375 62.832031 C 32.964844 83.691406 24.253906 114.203125 26.226562 153.53125 C 26.324219 155.5625 50.121094 356.679688 117.566406 356.679688 L 117.808594 356.679688 L 118.433594 356.667969 C 127.191406 356.457031 135.539062 352.9375 143.34375 346.199219 C 149.304688 350.671875 157.011719 353.316406 164.195312 354.367188 C 168.9375 355.484375 177.472656 357.066406 187.695312 357.066406 C 200.175781 357.066406 211.433594 354.511719 221.132812 349.894531 C 221.125 358.449219 221.074219 369.277344 220.976562 383.117188 L 220.96875 383.847656 L 221.015625 384.574219 C 221.960938 398.367188 224.339844 410.800781 227.929688 420.550781 C 238.144531 448.339844 255.785156 463.648438 277.605469 463.648438 C 278.511719 463.648438 279.433594 463.617188 280.367188 463.558594 C 298.308594 462.453125 316.496094 452.371094 329.007812 436.617188 C 342.546875 419.558594 345.675781 401.554688 346.882812 387.765625 L 346.960938 386.917969 L 346.960938 346.414062 L 347.960938 346.511719 L 352.199219 346.882812 L 352.605469 346.921875 L 353.015625 346.941406 C 354.21875 347 355.464844 347.015625 356.71875 347.015625 C 371.367188 347.015625 389.398438 343.21875 401.585938 337.550781 C 413.238281 332.144531 439.871094 317.292969 435.246094 296.316406 Z M 435.246094 296.316406 "/>
<path style=" stroke:none;fill-rule:nonzero;fill:rgb(0.784314%,46.666667%,74.117649%);fill-opacity:1;" d="M 327.519531 337.238281 C 327.519531 335.246094 327.636719 333.585938 327.695312 331.746094 C 327.597656 329.308594 327.519531 327.519531 327.519531 327.519531 C 327.519531 327.519531 327.636719 327.429688 327.832031 327.304688 C 329.277344 301.324219 336.441406 291.3125 344.109375 285.605469 C 343.042969 284.121094 341.808594 282.515625 340.652344 280.988281 C 337.414062 276.742188 333.378906 271.472656 329.066406 264.71875 L 328.265625 263.183594 C 327.617188 261.589844 326.042969 258.835938 324.039062 255.222656 C 312.539062 234.421875 288.609375 191.148438 304.988281 163.816406 C 312.160156 151.839844 325.613281 144.9375 345.042969 143.238281 C 337.101562 120.65625 307.351562 66.195312 239.894531 65.078125 C 239.875 65.078125 239.855469 65.078125 239.835938 65.078125 C 181.117188 64.125 161.820312 117.488281 155.542969 149.371094 C 164.195312 145.707031 174.070312 143.480469 183.109375 143.480469 C 183.246094 143.480469 183.390625 143.480469 183.527344 143.480469 C 205.785156 143.644531 221.09375 155.523438 225.546875 176.082031 C 228.804688 191.167969 230.367188 204.367188 230.328125 216.449219 C 230.230469 242.878906 224.90625 256.777344 220.199219 269.042969 L 218.703125 273.007812 C 217.5 276.253906 216.226562 279.277344 215.019531 282.117188 C 213.796875 285.011719 212.714844 287.589844 211.929688 289.914062 C 216.632812 290.980469 220.328125 292.488281 222.863281 293.605469 L 224.332031 294.246094 C 224.789062 294.441406 225.246094 294.664062 225.664062 294.917969 C 233.90625 299.933594 239.039062 307.640625 240.136719 316.621094 C 240.730469 321.464844 240.632812 354.464844 240.429688 383.253906 C 241.273438 395.742188 243.390625 406.230469 246.191406 413.832031 C 250.167969 424.660156 260.101562 445.335938 279.179688 444.148438 C 292.496094 443.324219 305.300781 435.214844 313.792969 424.523438 C 322.910156 413.046875 326.273438 400.351562 327.539062 386.054688 L 327.539062 337.238281 Z M 327.519531 337.238281 "/>
<path style=" stroke:none;fill-rule:nonzero;fill:rgb(0.784314%,46.666667%,74.117649%);fill-opacity:1;" d="M 153.667969 287.832031 C 137.988281 271.472656 130.347656 249.46875 133.214844 228.96875 C 135.988281 209.1875 134.421875 189.824219 133.574219 179.414062 C 133.292969 175.945312 133.109375 173.359375 133.117188 171.929688 C 133.117188 171.851562 133.136719 171.785156 133.148438 171.707031 C 133.148438 171.667969 133.128906 171.640625 133.128906 171.601562 C 134.304688 142.238281 145.628906 95.910156 176.800781 68.375 C 161.617188 62.394531 136.890625 54.511719 113.679688 55.359375 C 77.308594 56.679688 42.101562 81.835938 45.640625 152.558594 C 46.972656 179.09375 76.957031 338.242188 117.957031 337.238281 C 123.816406 337.09375 129.902344 333.332031 136.152344 325.808594 C 146.035156 313.921875 155.640625 303.140625 162.472656 295.636719 C 159.410156 293.3125 156.457031 290.75 153.667969 287.832031 Z M 366.621094 149.945312 C 366.769531 151.441406 366.640625 152.722656 366.410156 153.910156 C 366.710938 162.851562 365.746094 171.53125 364.765625 179.929688 C 364.046875 186.113281 363.308594 192.5 363.105469 198.902344 C 362.898438 205.171875 363.785156 211.363281 364.71875 217.917969 C 366.90625 233.253906 369.179688 250.566406 357.28125 270.765625 C 359.46875 273.640625 361.394531 276.3125 362.929688 278.898438 C 407.738281 206.242188 425.796875 119.871094 408.566406 97.855469 C 382.484375 64.535156 346.386719 54.890625 317.789062 55.359375 C 308.835938 55.503906 300.703125 56.710938 293.75 58.214844 C 343.089844 82.128906 365.066406 133.371094 366.621094 149.945312 Z M 405.277344 299.050781 C 379.375 304.394531 366.914062 301.546875 360.867188 297.824219 C 359.894531 298.523438 358.925781 299.117188 358.019531 299.671875 C 354.40625 301.859375 348.679688 305.339844 347.28125 326.710938 C 348.085938 326.867188 348.796875 326.957031 349.671875 327.140625 L 353.898438 327.519531 C 366.730469 328.101562 383.535156 324.507812 393.390625 319.929688 C 414.628906 310.070312 426.207031 294.734375 405.277344 299.050781 Z M 220.824219 318.957031 C 220.464844 316.058594 218.898438 313.714844 216.039062 311.839844 L 214.992188 311.382812 C 211.480469 309.839844 207.507812 308.078125 201.160156 308.078125 L 201.121094 308.078125 C 199.886719 308.175781 198.660156 308.265625 197.425781 308.265625 C 196.921875 308.265625 196.425781 308.195312 195.921875 308.175781 C 191.3125 311.722656 184.761719 314.464844 168.546875 317.800781 C 139.582031 325.175781 156.679688 333.886719 167.789062 335.238281 C 178.539062 337.929688 204.09375 341.203125 221.066406 327.375 C 221.015625 323.019531 220.9375 320.023438 220.824219 318.957031 Z M 220.824219 318.957031 "/>
<path style=" stroke:none;fill-rule:nonzero;fill:rgb(0.784314%,46.666667%,74.117649%);fill-opacity:1;" d="M 207.777344 186.589844 C 204.941406 189.523438 200.460938 192.089844 195.511719 191.292969 C 187.464844 189.992188 181.292969 180.28125 181.738281 176.636719 C 182.167969 173 189.039062 171.105469 197.078125 172.40625 C 199.867188 172.863281 202.402344 173.652344 204.542969 174.625 C 201.429688 167.9375 195.804688 164.078125 187.21875 163.132812 C 172.007812 161.441406 155.863281 169.394531 152.617188 173.796875 C 152.683594 174.867188 152.8125 176.238281 152.9375 177.851562 C 153.84375 189 155.515625 209.769531 152.453125 231.671875 C 150.429688 246.105469 156.273438 262.472656 167.683594 274.390625 C 175.042969 282.066406 183.632812 286.929688 192.109375 288.367188 C 193.1875 283.722656 195.113281 279.191406 197.097656 274.515625 C 198.195312 271.941406 199.359375 269.199219 200.460938 266.234375 L 202.035156 262.085938 C 206.339844 250.859375 210.78125 239.242188 210.871094 216.371094 C 210.910156 207.574219 209.828125 197.535156 207.777344 186.589844 Z M 345.472656 220.667969 C 344.460938 213.582031 343.421875 206.242188 343.671875 198.28125 C 343.898438 191.070312 344.695312 184.265625 345.460938 177.683594 C 346.066406 172.503906 346.53125 167.527344 346.804688 162.621094 C 334.273438 163.660156 325.953125 167.273438 322.007812 173.390625 C 323.640625 172.835938 325.488281 172.398438 327.527344 172.136719 C 336.199219 171.007812 342.527344 173.503906 343.253906 178.328125 C 343.789062 181.855469 340.796875 185.179688 339.484375 186.453125 C 336.792969 189.066406 333.398438 190.75 329.949219 191.195312 C 329.328125 191.273438 328.695312 191.3125 328.082031 191.3125 C 324.652344 191.3125 321.375 190.136719 318.859375 188.398438 C 319.945312 207.574219 334.089844 233.226562 341.050781 245.8125 C 342.535156 248.503906 343.683594 250.652344 344.636719 252.5 C 348.457031 241.625 347.046875 231.710938 345.472656 220.667969 Z M 345.472656 220.667969 "/>
</g>
</svg>
